<svg width="256" height="256" viewBox="0 0 16 16" xmlns="http://www.w3.org/2000/svg" shape-rendering="crispEdges">
  <rect width="16" height="16" fill="#1a0a0a" />
  
  <rect x="0" y="2" width="3" height="2" fill="#2d0f0f" />
  <rect x="5" y="1" width="4" height="1" fill="#2d0f0f" />
  <rect x="11" y="0" width="2" height="3" fill="#2d0f0f" />
  <rect x="2" y="6" width="5" height="2" fill="#2d0f0f" />
  <rect x="10" y="5" width="4" height="2" fill="#2d0f0f" />
  <rect x="1" y="10" width="3" height="1" fill="#2d0f0f" />
  <rect x="7" y="9" width="3" height="3" fill="#2d0f0f" />
  <rect x="13" y="11" width="3" height="2" fill="#2d0f0f" />
  <rect x="4" y="13" width="6" height="2" fill="#2d0f0f" />

  <rect x="4" y="4" width="1" height="1" fill="#661000" />
  <rect x="12" y="2" width="1" height="1" fill="#882000" />
  <rect x="1" y="13" width="2" height="1" fill="#661000" />
  <rect x="14" y="7" width="1" height="1" fill="#aa3300" />
  <rect x="8" y="10" width="1" height="1" fill="#ff4500" opacity="0.6" />
  <rect x="5" y="1" width="1" height="1" fill="#661000" />
  
  <rect x="0" y="0" width="1" height="1" fill="#3d1a1a" />
  <rect x="8" y="4" width="2" height="1" fill="#3d1a1a" />
  <rect x="14" y="14" width="2" height="1" fill="#3d1a1a" />
</svg>

