<svg xmlns="http://www.w3.org/2000/svg" width="16" height="16" viewBox="0 0 16 16" shape-rendering="crispEdges">
  <defs>
    <radialGradient id="void_particle_grad" cx="0.5" cy="0.5" r="0.5" fx="0.5" fy="0.5">
      <stop offset="0%" stop-color="#9d32b5"/>
      <stop offset="100%" stop-color="#000000" stop-opacity="0"/>
    </radialGradient>
  </defs>

  <rect width="16" height="16" fill="#1d1d24"/>

  <rect x="1" y="2" width="4" height="2" fill="#141419"/>
  <rect x="7" y="1" width="5" height="1" fill="#141419"/>
  <rect x="0" y="8" width="3" height="1" fill="#2a2a33"/>
  <rect x="11" y="7" width="4" height="2" fill="#2a2a33"/>
  <rect x="5" y="12" width="2" height="3" fill="#141419"/>
  <rect x="13" y="14" width="3" height="1" fill="#141419"/>

  <rect x="10" y="3" width="2" height="2" fill="#360c4a"/>
  <rect x="11" y="4" width="1" height="1" fill="#691a87"/>

  <rect x="2" y="10" width="1" height="1" fill="#c74be0"/>
  <rect x="2" y="11" width="1" height="1" fill="#8f2ea8"/>

  <rect x="5" y="5" width="1" height="1" fill="#8f2ea8"/>
  <rect x="7" y="5" width="1" height="1" fill="#8f2ea8"/>
  <rect x="5" y="7" width="3" height="1" fill="#0c0012"/>

  <rect x="13" y="11" width="1" height="1" fill="url(#void_particle_grad)"/>
  <rect x="14" y="10" width="1" height="1" fill="url(#void_particle_grad)"/>
  <rect x="12" y="12" width="1" height="1" fill="url(#void_particle_grad)"/>

  <rect x="0" y="0" width="1" height="1" fill="#2a2a33"/>
  <rect x="15" y="0" width="1" height="1" fill="#141419"/>
  <rect x="0" y="15" width="1" height="1" fill="#141419"/>
  <rect x="15" y="15" width="1" height="1" fill="#2a2a33"/>

</svg>

