<svg width="256" height="256" viewBox="0 0 16 16" xmlns="http://www.w3.org/2000/svg" shape-rendering="crispEdges">
  <rect width="16" height="16" fill="#594636" />
  <rect x="0" y="2" width="1" height="1" fill="#4d3d30" />
  <rect x="2" y="1" width="2" height="1" fill="#6b5441" />
  <rect x="5" y="0" width="1" height="2" fill="#4d3d30" />
  <rect x="8" y="3" width="3" height="1" fill="#6b5441" />
  <rect x="14" y="2" width="1" height="1" fill="#433529" />
  <rect x="1" y="6" width="2" height="1" fill="#4d3d30" />
  <rect x="6" y="5" width="2" height="2" fill="#6b5441" />
  <rect x="12" y="7" width="3" height="1" fill="#4d3d30" />
  <rect x="4" y="9" width="1" height="1" fill="#433529" />
  <rect x="0" y="11" width="3" height="1" fill="#6b5441" />
  <rect x="9" y="10" width="2" height="2" fill="#4d3d30" />
  <rect x="13" y="13" width="2" height="1" fill="#6b5441" />
  <rect x="4" y="14" width="2" height="1" fill="#4d3d30" />
  <rect x="7" y="15" width="1" height="1" fill="#433529" />
  <rect x="11" y="1" width="1" height="1" fill="#433529" />
</svg>

