<svg width="256" height="256" viewBox="0 0 16 16" xmlns="http://www.w3.org/2000/svg" shape-rendering="crispEdges">
  <rect width="16" height="16" fill="#051114" />
  <rect x="0" y="0" width="1" height="1" fill="#0d3137" />
  <rect x="0" y="2" width="1" height="1" fill="#0d3137" />
  <rect x="0" y="6" width="1" height="1" fill="#081d21" />
  <rect x="0" y="7" width="1" height="1" fill="#0a262b" />
  <rect x="0" y="8" width="1" height="1" fill="#0b4d5a" />
  <rect x="1" y="1" width="1" height="1" fill="#081d21" />
  <rect x="1" y="3" width="1" height="1" fill="#11677a" />
  <rect x="1" y="5" width="1" height="1" fill="#0a262b" />
  <rect x="1" y="12" width="1" height="1" fill="#00fbff" fill-opacity="0.5" />
  <rect x="2" y="4" width="1" height="1" fill="#0d3137" />
  <rect x="3" y="2" width="1" height="1" fill="#0b4d5a" />
  <rect x="5" y="5" width="1" height="1" fill="#081d21" />
  <rect x="8" y="8" width="1" height="1" fill="#11677a" />
  <rect x="10" y="14" width="1" height="1" fill="#0a262b" />
  <rect x="14" y="2" width="1" height="1" fill="#081d21" />
  <rect x="15" y="15" width="1" height="1" fill="#0d3137" />
</svg>

