<svg width="64" height="64" viewBox="0 0 16 16" fill="none" xmlns="http://www.w3.org/2000/svg" shape-rendering="crispEdges">
  <!-- Outer Border (Dark Grey/Black) -->
  <path d="M1 3H15V13H1V3Z" fill="#000000"/>
  
  <!-- Main Envelope Body (Light Grey/Iron) -->
  <path d="M2 4H14V12H2V4Z" fill="#D8D8D8"/>
  
  <!-- Envelope Flap Highlights (White/Silver) -->
  <path d="M2 4H14V5H13V6H12V7H11V8H10V9H6V8H5V7H4V6H3V5H2V4Z" fill="#FFFFFF"/>
  
  <!-- Shadow/Crease (Darker Grey) -->
  <path d="M3 5H4V6H5V7H6V8H10V7H11V6H12V5H13V4H14V5H13V6H12V7H11V8H10V9H9V10H7V9H6V8H5V7H4V6H3V5Z" fill="#A0A0A0"/>
  
  <!-- Bottom Corner Accents -->
  <path d="M2 11H3V12H2V11Z" fill="#A0A0A0"/>
  <path d="M13 11H14V12H13V11Z" fill="#A0A0A0"/>
</svg>

