<?xml version="1.0" encoding="utf-8"?>
<svg xmlns="http://www.w3.org/2000/svg" xmlns:xlink="http://www.w3.org/1999/xlink" version= "1.1" width="1000px" height="1000px" viewBox="-140 230 1000 1000">
<g id="layer1">
<g style="fill:rgb(37,217,240); fill-opacity:1.0; stroke-linejoin: miter">
<path d="M399.40762,1089.7858L179.73802,1089.2759L4.412013,913.13043L4.9226475,693.46204L269.23965,386.53873L401.0413,386.8438L399.40762,1089.7858"/>
</g>
<g style="fill:rgb(37,217,240); fill-opacity:1.0; stroke-linejoin: miter">
<path d="M333.50665,1089.6326L553.1763,1090.1438L729.31915,914.8153L729.82965,695.1469L466.94226,386.99826L335.14062,386.69064L333.50665,1089.6326"/>
</g>
</g>
<g id="layer2">
<g style="fill:rgb(255,255,255); fill-opacity:1.0; stroke-linejoin: miter">
<path d="M-5.340576E-5,1087.9998L-2.670288E-4,1088.0009L-4.8065183E-4,1088.002L-5.340576E-5,1087.9998"/>
</g>
<g style="fill:rgb(255,255,255); fill-opacity:1.0; stroke-linejoin: miter">
<path d="M720.0,1087.9999L720.00024,1088.001L720.0004,1088.0021L720.0,1087.9999"/>
</g>
<g style="fill:rgb(255,255,255); fill-opacity:1.0; stroke-linejoin: miter">
<path d="M381.12225,1060.7275L379.59082,1065.55Q368.93497,1105.6158,354.06195,1098.3724Q346.51785,1095.9569,324.04974,1063.1971L307.5777,1048.2878L288.99042,1034.8185Q224.31938,998.4525,208.211,985.5553Q177.53098,964.0112,157.74696,935.7532Q143.6643,914.746,146.67159,892.97815Q147.28789,871.37085,186.65863,820.4425Q178.14487,781.8547,185.3554,758.21216Q195.93971,729.7312,240.48058,697.9521Q230.37378,669.04126,234.95963,652.72296Q234.9703,650.7478,240.33873,642.5906Q267.09338,615.96466,266.9508,612.74744Q268.2183,611.26917,269.86313,602.91724Q270.60812,601.1588,270.13855,579.11066Q270.98492,571.07605,271.88272,569.7257Q276.904,556.4872,295.82697,541.3862Q286.30762,513.2616,291.8269,501.38763Q295.51196,489.1232,323.4397,468.9712Q315.86334,448.88348,319.98782,438.62112Q323.99783,430.51794,338.08948,422.64447Q335.04053,404.92862,339.6371,400.80136Q342.29657,397.0538,348.83044,392.54688L354.21533,382.70404L357.5316,378.35623Q360.5398,375.40637,363.28662,379.9623Q364.84747,382.5931,366.30554,386.05466L415.9999,543.9998L381.12225,1060.7275"/>
</g>
<g style="fill:rgb(255,255,255); fill-opacity:1.0; stroke-linejoin: miter">
<path d="M338.8778,1060.7275L340.40924,1065.55Q351.0651,1105.6158,365.9381,1098.3724Q373.4822,1095.9569,395.95032,1063.1971L412.42236,1048.2878L431.00964,1034.8185Q495.6807,998.4526,511.78906,985.55536Q542.4691,964.0113,562.2531,935.75323Q576.33575,914.74603,573.3285,892.9782Q572.71216,871.3709,533.34143,820.44257Q541.8552,781.85474,534.64465,758.2122Q524.06036,729.73126,479.51953,697.95215Q489.6263,669.0413,485.04047,652.723Q485.0298,650.74786,479.66138,642.59064Q452.9067,615.9647,453.0493,612.7475Q451.7818,611.2692,450.13696,602.9173Q449.39197,601.1589,449.86154,579.1107Q449.01517,571.0761,448.11737,569.72577Q443.0961,556.48724,424.17316,541.3863Q433.6925,513.26166,428.17322,501.38763Q424.48816,489.1232,396.56042,468.9712Q404.13678,448.88348,400.0123,438.62112Q396.0023,430.51794,381.91064,422.64447Q384.9596,404.92862,380.36304,400.80136Q377.70355,397.0538,371.16968,392.54688L365.7848,382.70404L362.46854,378.35623Q359.46033,375.40637,356.7135,379.9623Q355.15265,382.5931,353.69458,386.05466L304.00024,543.9998L338.8778,1060.7275"/>
</g>
<g style="fill:rgb(255,255,255); fill-opacity:1.0; stroke-linejoin: miter">
<path d="M415.71286,310.93866L415.71295,310.93915L415.71304,310.93964L415.71286,310.93866"/>
</g>
<g style="fill:rgb(255,255,255); fill-opacity:1.0; stroke-linejoin: miter">
<path d="M304.28714,310.93866L304.28705,310.93915L304.28696,310.93964L304.28714,310.93866"/>
</g>
<g style="fill:rgb(255,255,255); fill-opacity:1.0; stroke-linejoin: miter">
<path d="M389.75687,556.75903L389.43262,559.1497Q389.49243,558.7749,389.5419,558.44824L389.58875,558.13385Q389.633,557.83167,389.66687,557.5782Q389.7007,557.3247,389.7242,557.11993Q389.74768,556.9151,389.76077,556.75903L389.75687,556.75903 M389.4072,559.30835L389.22,560.4427Q388.3949,565.33826,386.34814,575.9614Q385.66302,580.0979,385.32895,582.6514L371.9668,687.92004L389.4072,559.30835"/>
</g>
<g style="fill:rgb(255,255,255); fill-opacity:1.0; stroke-linejoin: miter">
<path d="M338.72858,743.86536C338.95535,743.9559,339.1908,744.01733,339.4295,744.0496L339.4295,744.0496Q339.09604,744.01843,338.7252,743.86536 Z M396.90448,719.45953Q385.84882,719.45953,339.33243,738.117L339.32904,738.117Q338.74463,738.1639,338.11566,738.39105L338.11563,738.39105Q335.08444,739.4859,325.25845,748.29004C325.17038,748.36896,325.08728,748.4529,325.00925,748.54175Q314.0524,761.01874,307.077,774.2819L307.0739,774.2819Q304.22122,779.1056,299.9545,808.7698C299.9483,808.81287,299.94305,808.8562,299.93875,808.89954Q295.4228,854.47644,320.50928,888.431L320.50766,888.431Q336.47424,911.4573,346.00214,914.44635L345.9987,914.44635Q353.68658,918.5679,381.60193,918.84015C381.6118,918.8403,381.62164,918.8403,381.6315,918.8403C383.25497,918.8403,384.5789,917.5322,384.59476,915.90515C384.61072,914.2682,383.29666,912.9283,381.65973,912.9123Q354.67987,912.6491,348.64297,909.1342C348.42377,909.0066,348.189,908.9076,347.94458,908.8397Q340.41147,906.74805,325.32962,884.98157L325.27722,884.9083Q301.5826,852.8377,305.8252,809.6138L305.82224,809.6138Q309.99344,780.61346,312.14746,777.34564C312.2014,777.26385,312.25122,777.1794,312.29678,777.09265Q318.9095,764.50287,329.33496,752.60004L329.33167,752.60004Q337.6646,745.14,339.87323,744.0761L339.86984,744.0761C340.2302,744.0709,340.59036,744.0,340.93198,743.8628Q387.311,725.2316,396.00784,725.2316Q396.6131,725.2316,397.03583,725.3219L397.03186,725.3219C397.57706,725.7879,398.2644,726.0307,398.9584,726.0307C399.57538,726.0307,400.19763,725.8388,400.72995,725.44116C402.04144,724.4615,402.31042,722.6041,401.33072,721.29254Q400.4877,720.16406,398.96417,719.702L398.96414,719.70197Q398.16467,719.45953,396.90448,719.45953 Z"/>
</g>
<g>
<g style="fill:rgb(0,188,212); fill-opacity:1.0; stroke-linejoin: miter">
</g>
</g>
</g>
<g id="layer3">
<g>
<g style="fill:rgb(0,226,255); fill-opacity:1.0; stroke-linejoin: miter">
<path d="M402.03568,724.87805Q392.32483,723.35846,380.64282,723.8754Q221.68471,807.68195,304.61273,960.866L331.2176,983.4084Q347.21228,993.81537,362.37592,996.1882Q387.86176,1000.1762,411.0,981.4693Q455.13776,963.63324,460.10144,916.12933Q451.73566,861.45465,398.52277,853.12787Q375.36642,849.50433,343.7174,854.65765L339.55948,862.79144Q335.9879,874.3305,337.45325,883.2138Q340.561,883.51483,343.67297,881.3Q351.6595,885.01373,355.94104,891.53326Q359.49014,893.4633,359.9307,895.5363L366.1438,897.61884L382.4082,907.85895Q390.3888,915.1248,396.7484,918.09576Q375.2039,935.2199,351.4575,931.5041Q348.57666,931.0533,345.66345,930.2957L337.39865,915.9246Q306.89795,833.1342,376.55093,781.1497Q392.98663,788.0711,407.4641,790.3366Q414.74463,791.4759,421.52985,791.4377Q438.56836,781.2531,448.06177,768.9839Q440.55948,730.90625,402.03568,724.87805 Z"/>
</g>
</g>
</g>
</svg>