<svg width="256" height="256" viewBox="0 0 16 16" xmlns="http://www.w3.org/2000/svg" shape-rendering="crispEdges">
  <rect width="16" height="16" fill="#1a1a1a" />
  
  <rect x="0" y="0" width="15" height="7" fill="#3a3a3a" />
  <rect x="0" y="8" width="7" height="7" fill="#3a3a3a" />
  <rect x="8" y="8" width="8" height="7" fill="#3a3a3a" />

  <g fill="#000000" fill-opacity="0.5">
    <rect x="1" y="1" width="2" height="1" />
    <rect x="5" y="0" width="1" height="2" />
    <rect x="10" y="2" width="2" height="1" />
    <rect x="13" y="5" width="1" height="1" />
    <rect x="1" y="9" width="1" height="2" />
    <rect x="4" y="12" width="2" height="1" />
    <rect x="9" y="10" width="1" height="1" />
    <rect x="12" y="13" width="2" height="1" />
  </g>
  
  <g fill="#888888" fill-opacity="0.4">
    <rect x="2" y="3" width="1" height="1" />
    <rect x="8" y="1" width="2" height="1" />
    <rect x="12" y="3" width="1" height="2" />
    <rect x="0" y="6" width="3" height="1" />
    <rect x="2" y="11" width="2" height="1" />
    <rect x="6" y="14" width="1" height="1" />
    <rect x="10" y="8" width="2" height="1" />
    <rect x="14" y="11" width="1" height="2" />
  </g>

  <path d="M0 0h15v1H0zm0 8h7v1H0zm8 0h8v1H8z" fill="#555555" fill-opacity="0.5"/>
</svg>

