<svg width="256" height="256" viewBox="0 0 16 16" xmlns="http://www.w3.org/2000/svg" shape-rendering="crispEdges">
  <rect width="16" height="16" fill="#441100" />
  <rect x="0" y="7" width="16" height="1" fill="#ff4400" /> <rect x="7" y="8" width="1" height="8" fill="#ff4400" /> <rect x="15" y="0" width="1" height="7" fill="#ff4400" /> <rect x="0" y="0" width="15" height="7" fill="#220a0a" />
  <rect x="1" y="1" width="13" height="1" fill="#331111" /> <rect x="1" y="1" width="1" height="5" fill="#331111" /> <rect x="4" y="3" width="3" height="2" fill="#150505" />
  <rect x="10" y="2" width="2" height="2" fill="#150505" />

  <rect x="0" y="8" width="7" height="7" fill="#220a0a" />
  <rect x="1" y="9" width="5" height="1" fill="#331111" />
  <rect x="1" y="9" width="1" height="5" fill="#331111" />
  <rect x="3" y="12" width="2" height="2" fill="#150505" />

  <rect x="8" y="8" width="8" height="7" fill="#220a0a" />
  <rect x="9" y="9" width="6" height="1" fill="#331111" />
  <rect x="9" y="9" width="1" height="5" fill="#331111" />
  <rect x="12" y="11" width="2" height="2" fill="#150505" />
  
  <rect x="7" y="7" width="1" height="1" fill="#ffaa00" />
  <rect x="15" y="7" width="1" height="1" fill="#ffaa00" />
</svg>

