<svg xmlns="http://www.w3.org/2000/svg" width="16" height="16" viewBox="0 0 16 16" shape-rendering="crispEdges">

  <rect width="16" height="16" fill="#141419"/>

  <rect x="0" y="7" width="16" height="2" fill="#08080a"/> <rect x="7" y="9" width="2" height="7" fill="#08080a"/> <rect x="0" y="0" width="1" height="16" fill="#08080a"/> <rect x="15" y="0" width="1" height="16" fill="#08080a"/> <rect x="0" y="0" width="16" height="1" fill="#08080a"/> <rect x="0" y="15" width="16" height="1" fill="#08080a"/> <rect x="2" y="2" width="4" height="2" fill="#261033"/>
  <rect x="9" y="10" width="4" height="2" fill="#261033"/>
  <rect x="3" y="11" width="3" height="1" fill="#1d1d24"/>

  <rect x="3" y="4" width="1" height="1" fill="#c74be0"/>
  <rect x="5" y="4" width="1" height="1" fill="#c74be0"/>

  <rect x="11" y="12" width="2" height="1" fill="#360c4a"/>
  <rect x="12" y="11" width="1" height="2" fill="#360c4a"/>
  <rect x="13" y="13" width="1" height="1" fill="#c74be0"/>

  <rect x="13" y="2" width="2" height="2" fill="#c74be0"/>
  <rect x="14" y="3" width="1" height="1" fill="#0c0012"/>

  <rect x="8" y="7" width="4" height="1" fill="#691a87"/>

  <rect x="9" y="3" width="3" height="3" fill="#0c0012"/>
  <rect x="10" y="4" width="1" height="1" fill="#261033"/>

</svg>

