<svg width="64" height="64" viewBox="0 0 16 16" xmlns="http://www.w3.org/2000/svg" shape-rendering="crispEdges">
  <!-- Base Brick Color -->
  <rect width="16" height="16" fill="#5c5c5c"/>
  <!-- Brick Mortar Lines -->
  <path d="M0 7h16v1H0zm8 0v8h1V7zm0-7v1h1V0z" fill="#3a3a3a"/>
  <!-- Moss Overgrowth -->
  <path d="M0 0h5v3H0zm11 0h5v2h-5zM4 6h4v2H4zm7 8h5v2h-5zM0 13h3v3H0z" fill="#4e5c24"/>
  <!-- Bright Moss Highlights -->
  <path d="M1 1h2v1H1zm12 0h2v1h-2zM5 7h1v1H5zm8 8h1v1h-1z" fill="#7a8a30"/>
  <!-- Glow Berry Speckle -->
  <rect x="2" y="14" width="1" height="1" fill="#ffb400"/>
</svg>

