<svg width="256" height="256" viewBox="0 0 16 16" xmlns="http://www.w3.org/2000/svg" shape-rendering="crispEdges">
  <!-- Base Wood Color -->
  <rect width="16" height="16" fill="#a6885a" />
  
  <!-- Plank Highlights/Texture -->
  <rect x="0" y="0" width="16" height="1" fill="#b99e74" />
  <rect x="0" y="5" width="16" height="1" fill="#b99e74" />
  <rect x="0" y="10" width="16" height="1" fill="#b99e74" />
  
  <!-- Plank Shadows (Horizontal Separators) -->
  <rect x="0" y="4" width="16" height="1" fill="#8e734a" />
  <rect x="0" y="9" width="16" height="1" fill="#8e734a" />
  <rect x="0" y="15" width="16" height="1" fill="#8e734a" />

  <!-- Random Pixel Grain for Detail -->
  <rect x="2" y="2" width="1" height="1" fill="#8e734a" />
  <rect x="12" y="1" width="2" height="1" fill="#b99e74" />
  <rect x="5" y="6" width="1" height="1" fill="#8e734a" />
  <rect x="14" y="7" width="1" height="1" fill="#b99e74" />
  <rect x="1" y="12" width="2" height="1" fill="#8e734a" />
  <rect x="8" y="13" width="1" height="1" fill="#b99e74" />
  <rect x="10" y="11" width="1" height="1" fill="#8e734a" />
  <rect x="3" y="14" width="1" height="1" fill="#b99e74" />
</svg>

