<svg width="400" height="400" viewBox="0 0 16 16" xmlns="http://www.w3.org/2000/svg" shape-rendering="crispEdges">
  <!-- Background Base Color -->
  <rect width="16" height="16" fill="#7a7a7a"/>
  
  <!-- Light Highlights -->
  <rect x="5" y="0" width="1" height="1" fill="#8b8b8b"/>
  <rect x="9" y="0" width="1" height="1" fill="#959595"/>
  <rect x="0" y="1" width="2" height="1" fill="#8b8b8b"/>
  <rect x="2" y="1" width="4" height="1" fill="#959595"/>
  <rect x="9" y="1" width="3" height="1" fill="#959595"/>
  <rect x="1" y="3" width="3" height="1" fill="#959595"/>
  <rect x="7" y="3" width="1" height="1" fill="#8b8b8b"/>
  <rect x="10" y="4" width="3" height="1" fill="#8b8b8b"/>
  <rect x="6" y="6" width="2" height="1" fill="#8b8b8b"/>
  <rect x="12" y="6" width="3" height="1" fill="#959595"/>
  <rect x="1" y="8" width="2" height="1" fill="#8b8b8b"/>
  <rect x="9" y="8" width="5" height="1" fill="#8b8b8b"/>
  <rect x="2" y="10" width="1" height="1" fill="#959595"/>
  <rect x="10" y="10" width="3" height="1" fill="#8b8b8b"/>
  <rect x="8" y="11" width="2" height="2" fill="#959595"/>
  <rect x="1" y="13" width="5" height="1" fill="#8b8b8b"/>
  <rect x="10" y="14" width="2" height="1" fill="#8b8b8b"/>
  
  <!-- Dark Shadows/Crevices -->
  <rect x="12" y="1" width="1" height="1" fill="#6d6d6d"/>
  <rect x="1" y="2" width="1" height="1" fill="#717171"/>
  <rect x="4" y="2" width="1" height="1" fill="#6d6d6d"/>
  <rect x="11" y="2" width="1" height="1" fill="#717171"/>
  <rect x="13" y="2" width="1" height="1" fill="#7a7a7a"/>
  <rect x="5" y="3" width="1" height="1" fill="#6d6d6d"/>
  <rect x="15" y="4" width="1" height="1" fill="#6d6d6d"/>
  <rect x="9" y="5" width="1" height="1" fill="#6d6d6d"/>
  <rect x="14" y="5" width="1" height="1" fill="#6d6d6d"/>
  <rect x="3" y="8" width="1" height="1" fill="#6d6d6d"/>
  <rect x="9" y="7" width="1" height="1" fill="#6d6d6d"/>
  <rect x="8" y="9" width="1" height="2" fill="#6d6d6d"/>
  <rect x="0" y="11" width="1" height="1" fill="#6d6d6d"/>
  <rect x="15" y="11" width="1" height="1" fill="#6d6d6d"/>
  <rect x="10" y="13" width="1" height="1" fill="#6d6d6d"/>
  <rect x="4" y="15" width="1" height="1" fill="#6d6d6d"/>
  <rect x="14" y="14" width="1" height="2" fill="#6d6d6d"/>
</svg>

